<?xml version="1.0" standalone="no"?><!DOCTYPE svg PUBLIC "-//W3C//DTD SVG 1.1//EN" "http://www.w3.org/Graphics/SVG/1.1/DTD/svg11.dtd"><svg t="1566372213630" class="icon" viewBox="0 0 1024 1024" version="1.1" xmlns="http://www.w3.org/2000/svg" p-id="1133" xmlns:xlink="http://www.w3.org/1999/xlink" width="200" height="200"><defs><style type="text/css"></style></defs><path d="M352.787377 520.511509l94.416792 93.807214V254.013229a64.795837 64.795837 0 1 1 129.569097 0v360.26034l94.349061-93.739483a64.795837 64.795837 0 1 1 91.684981 91.639827l-204.885792 203.553753a64.389452 64.389452 0 0 1-21.199753 14.133168c-7.134315 2.935003-14.765323 4.244466-22.373755 4.560544-0.835347 0-1.512655 0.451539-2.348002 0.451538-0.496693 0-0.948232-0.270923-1.422348-0.316077a63.96049 63.96049 0 0 1-44.386277-18.693712h-0.022577l-204.998677-203.666637a64.795837 64.795837 0 0 1 0-91.639827 64.682953 64.682953 0 0 1 91.61725-0.045154zM0.000006 1024V0h1023.954846V1024H0.000006zM959.949208 64.005644H63.983073v896.011289h895.966135V64.005644z" fill="#1296db" p-id="1134"></path></svg>