<?xml version="1.0" standalone="no"?><!DOCTYPE svg PUBLIC "-//W3C//DTD SVG 1.1//EN" "http://www.w3.org/Graphics/SVG/1.1/DTD/svg11.dtd"><svg t="1566890863018" class="icon" viewBox="0 0 1024 1024" version="1.1" xmlns="http://www.w3.org/2000/svg" p-id="5326" xmlns:xlink="http://www.w3.org/1999/xlink" width="128" height="128"><defs><style type="text/css"></style></defs><path d="M683.417091 64.021106l-11.426237 0-62.854537 0L237.728356 64.021106c-68.567655 0-125.709073 44.799322-125.709073 111.995747l0 660.766209c0 67.196425 57.141418 123.193787 125.709073 123.193787l554.257429 0c68.567655 0 119.994931-55.998385 119.994931-123.193787L911.980717 352.007099l0-2.4017 0-61.594847 0-0.00307L683.417091 64.021106zM847.983147 836.784084c0 16.299221-5.870708 31.41243-16.531512 42.556235-7.262404 7.590885-20.004613 16.641005-39.46585 16.641005L237.728356 895.981325c-16.312524 0-31.857569-6.431479-43.773969-18.10945-11.567453-11.336186-17.937534-25.928532-17.937534-41.08779L176.016853 176.017876c0-13.405311 4.842285-24.074302 14.803147-32.615838 11.400654-9.776667 28.498054-15.383362 46.908356-15.383362l371.407961 0 46.857191 0 0 121.327276c0 56.608276 46.053895 102.662171 102.661148 102.662171l89.328491 0L847.983147 836.784084zM758.654656 288.010553c-21.319561 0-38.664601-17.34504-38.664601-38.665625l0-59.879786 100.559277 98.54541L758.654656 288.010553z" p-id="5327"></path><path d="M687.99127 703.990662 304.009945 703.990662c-17.672498 0-31.998785 14.326287-31.998785 31.998785s14.326287 31.998785 31.998785 31.998785l383.981325 0c17.672498 0 31.998785-14.326287 31.998785-31.998785S705.663768 703.990662 687.99127 703.990662z" p-id="5328"></path><path d="M687.99127 575.996546 304.009945 575.996546c-17.672498 0-31.998785 14.326287-31.998785 31.998785s14.326287 31.998785 31.998785 31.998785l383.981325 0c17.672498 0 31.998785-14.326287 31.998785-31.998785S705.663768 575.996546 687.99127 575.996546z" p-id="5329"></path><path d="M687.99127 448.003454 304.009945 448.003454c-17.672498 0-31.998785 14.326287-31.998785 31.998785s14.326287 31.998785 31.998785 31.998785l383.981325 0c17.672498 0 31.998785-14.326287 31.998785-31.998785S705.663768 448.003454 687.99127 448.003454z" p-id="5330"></path></svg>