<?xml version="1.0" standalone="no"?><!DOCTYPE svg PUBLIC "-//W3C//DTD SVG 1.1//EN" "http://www.w3.org/Graphics/SVG/1.1/DTD/svg11.dtd"><svg t="1571389014352" class="icon" viewBox="0 0 1024 1024" version="1.1" xmlns="http://www.w3.org/2000/svg" p-id="7322" xmlns:xlink="http://www.w3.org/1999/xlink" width="200" height="200"><defs><style type="text/css"></style></defs><path d="M763.134179 35.244712c-148.132782 0-261.530458 120.16787-261.530458 268.360004l0 56.612369-418.166915 0.691755c-40.635489 0-79.595826 41.216727-79.595826 81.85324l-0.751107 447.863261c0 40.696888 44.917002 93.022627 85.553515 93.022627l629.568672 0c40.636512 0 74.383104-41.157375 74.383104-81.792864l0-463.608873c0-40.636512-31.083949-79.591733-71.721485-79.591733l28.656667 0.056282-116.871801-0.345877-15.456017 0 0-38.898939c0-86.599334 58.059324-185.931666 147.31823-185.931666 89.261976 0 148.360979 99.331309 148.360979 185.931666l0.061398 39.590694 107.551528 0.234337 0-55.686277C1020.495688 155.412582 911.206586 35.244712 763.134179 35.244712zM638.792243 459.372386c35.834136 0 58.117652 32.821523 58.117652 68.597331l0 291.109124c0 35.830043-19.335371 68.65259-55.106062 68.65259L165.922449 887.73143c-35.831067 0-65.582671-32.822546-65.582671-68.65259L100.339778 526.522762c0-35.831067 21.532409-67.150376 57.362452-67.150376L638.792243 459.372386z" p-id="7323" fill="#1296db"></path><path d="M404.06422 817.281915c55.570643 0 100.608396-45.032636 100.608396-100.603279 0-43.765783-28.076452-80.69281-67.091024-94.529957l0-62.805418c0-18.178011-14.702863-32.880875-32.821523-32.996508-18.11866 0.115634-32.821523 14.818497-32.821523 32.996508l0 62.400189c-39.71042 13.431917-68.477604 50.593282-68.477604 94.935186C303.460941 772.249279 348.493577 817.281915 404.06422 817.281915zM403.893328 672.337755c24.541953 0 44.341904 19.795858 44.341904 44.281529s-19.799952 44.284599-44.341904 44.284599c-24.430412 0-44.285622-19.798928-44.285622-44.284599S379.462916 672.337755 403.893328 672.337755z" p-id="7324" fill="#1296db"></path></svg>