<?xml version="1.0" standalone="no"?><!DOCTYPE svg PUBLIC "-//W3C//DTD SVG 1.1//EN" "http://www.w3.org/Graphics/SVG/1.1/DTD/svg11.dtd"><svg t="1566799704584" class="icon" viewBox="0 0 1465 1024" version="1.1" xmlns="http://www.w3.org/2000/svg" p-id="3377" xmlns:xlink="http://www.w3.org/1999/xlink" width="286.1328125" height="200"><defs><style type="text/css"></style></defs><path d="M918.076181 191.997027v767.998122H278.080249V191.997027h639.995932m0-63.993585H278.080249c-35.309697 0-63.993584 28.683887-63.993584 63.993585v767.998122c0 35.314705 28.683887 64.003599 63.993584 64.003599h639.995932c35.319712 0 64.003599-28.688894 64.003599-64.003599V191.997027c0-35.309697-28.683887-63.993584-64.003599-63.993585z m0 0" fill="#1296db" p-id="3378"></path><path d="M790.084005 64.004851v63.998591H278.080249L214.086665 191.997027v639.995932h-63.998592v-767.988108h639.995932m0-64.003599H150.088073c-35.319712 0-64.003599 28.683887-64.003599 64.003599v767.988108c0 35.319712 28.683887 64.003599 64.003599 64.003599H278.080249V191.997027h576.002347v-127.992176c0-35.319712-28.688894-64.003599-63.998591-64.003599z m0 0" fill="#1296db" p-id="3379"></path><path d="M759.111816 415.997731H439.11385c-17.716813 0-32.004929-14.28436-32.004929-31.994914 0-17.720568 14.283109-32.003677 32.004929-32.003678h319.997966c17.710554 0 31.99867 14.283109 31.99867 32.003678 0 17.706799-14.400778 31.994915-31.99867 31.994914z m0 192.004538H439.11385c-17.716813 0-32.004929-14.288116-32.004929-32.003677s14.283109-31.99867 32.004929-31.99867h319.997966c17.710554 0 31.99867 14.283109 31.99867 31.99867 0 17.715561-14.400778 32.003677-31.99867 32.003677z m0 191.99202H439.11385c-17.716813 0-32.004929-14.28436-32.004929-31.994915 0-17.720568 14.283109-32.003677 32.004929-32.003677h319.997966c17.710554 0 31.99867 14.283109 31.99867 32.003677 0 17.710554-14.400778 31.994915-31.99867 31.994915z m0 0" fill="#1296db" p-id="3380"></path></svg>