<?xml version="1.0" standalone="no"?><!DOCTYPE svg PUBLIC "-//W3C//DTD SVG 1.1//EN" "http://www.w3.org/Graphics/SVG/1.1/DTD/svg11.dtd"><svg t="1566799855184" class="icon" viewBox="0 0 1024 1024" version="1.1" xmlns="http://www.w3.org/2000/svg" p-id="5450" xmlns:xlink="http://www.w3.org/1999/xlink" width="200" height="200"><defs><style type="text/css"></style></defs><path d="M876.471 927.005H539.665c-12.867 0-23.265-10.408-23.265-23.274 0-12.863 10.397-23.275 23.265-23.275h336.806c10.342 0 18.753-8.409 18.753-18.728v-697.98c0-10.319-8.411-18.729-18.753-18.729H367.156c-10.34 0-18.773 8.409-18.773 18.729v196.338c0 12.865-10.41 23.275-23.275 23.275s-23.275-10.41-23.275-23.275V163.747c0-36.003 29.298-65.279 65.324-65.279h509.314c36.005 0 65.303 29.276 65.303 65.279v697.98c-0.001 36.004-29.298 65.278-65.303 65.278z" fill="#1296db" p-id="5451"></path><path d="M325.107 936.781c-144.174 0-261.481-117.217-261.481-261.301 0-144.059 117.307-261.252 261.481-261.252 144.173 0 261.469 117.194 261.469 261.252 0 144.084-117.295 261.301-261.469 261.301z m0-476.003c-118.512 0-214.931 96.304-214.931 214.703 0 118.422 96.418 214.75 214.931 214.75 118.512 0 214.921-96.328 214.921-214.75 0-118.399-96.409-214.703-214.921-214.703z" fill="#1296db" p-id="5452"></path><path d="M436.028 698.756h-110.92c-12.865 0-23.275-10.409-23.275-23.275V512.737c0-12.865 10.41-23.275 23.275-23.275s23.275 10.41 23.275 23.275v139.468h87.645c12.864 0 23.275 10.411 23.275 23.275 0 12.867-10.411 23.276-23.275 23.276zM800.282 329.4H445.21c-12.865 0-23.275-10.41-23.275-23.275 0-12.865 10.41-23.275 23.275-23.275h355.072c12.863 0 23.274 10.411 23.274 23.275 0.001 12.866-10.41 23.275-23.274 23.275zM800.282 534.058H621.807c-12.863 0-23.274-10.41-23.274-23.276 0-12.864 10.411-23.275 23.274-23.275h178.476c12.863 0 23.274 10.411 23.274 23.275 0 12.865-10.411 23.276-23.275 23.276zM800.282 738.716H651.039c-12.864 0-23.275-10.411-23.275-23.275 0-12.866 10.411-23.275 23.275-23.275h149.243c12.863 0 23.274 10.409 23.274 23.275 0.001 12.864-10.41 23.275-23.274 23.275z" fill="#1296db" p-id="5453"></path></svg>