<?xml version="1.0" standalone="no"?><!DOCTYPE svg PUBLIC "-//W3C//DTD SVG 1.1//EN" "http://www.w3.org/Graphics/SVG/1.1/DTD/svg11.dtd"><svg t="1566526401286" class="icon" viewBox="0 0 1024 1024" version="1.1" xmlns="http://www.w3.org/2000/svg" p-id="4114" xmlns:xlink="http://www.w3.org/1999/xlink" width="200" height="200"><defs><style type="text/css"></style></defs><path d="M901.12 836.608H122.88c-22.528 0-40.96-18.432-40.96-40.96v-573.44c0-22.528 18.432-40.96 40.96-40.96h778.24c22.528 0 40.96 18.432 40.96 40.96v573.44c0 22.528-18.432 40.96-40.96 40.96zM122.88 222.208v573.44h778.24v-573.44H122.88z" p-id="4115" fill="#1296db"></path><path d="M707.072 497.152c-31.744 0-56.832-31.744-56.832-72.192s25.088-72.192 56.832-72.192c31.744 0 56.832 31.744 56.832 72.192s-24.576 72.192-56.832 72.192z m0-103.424c-6.144 0-15.872 12.288-15.872 31.232 0 18.944 9.728 31.232 15.872 31.232 6.144 0 15.872-12.288 15.872-31.232 0.512-18.944-9.216-31.232-15.872-31.232zM707.072 665.088c-55.808 0-132.608 0-132.608-60.416 0-49.664 58.368-88.064 132.608-88.064s132.608 38.912 132.608 88.064c0 60.416-76.8 60.416-132.608 60.416z m0-107.52c-53.76 0-91.648 25.088-91.648 47.104 0 16.384 34.816 19.456 91.648 19.456 56.32 0 91.648-3.072 91.648-19.456 0-22.016-37.376-47.104-91.648-47.104zM427.52 531.968h-220.16c-12.8 0-23.04-10.24-23.04-23.04s10.24-23.04 23.04-23.04h220.16c12.8 0 23.04 10.24 23.04 23.04s-10.24 23.04-23.04 23.04zM427.52 634.368h-220.16c-12.8 0-23.04-10.24-23.04-23.04s10.24-23.04 23.04-23.04h220.16c12.8 0 23.04 10.24 23.04 23.04s-10.24 23.04-23.04 23.04zM427.52 429.568h-220.16c-12.8 0-23.04-10.24-23.04-23.04s10.24-23.04 23.04-23.04h220.16c12.8 0 23.04 10.24 23.04 23.04s-10.24 23.04-23.04 23.04z" p-id="4116" fill="#1296db"></path></svg>