<?xml version="1.0" standalone="no"?><!DOCTYPE svg PUBLIC "-//W3C//DTD SVG 1.1//EN" "http://www.w3.org/Graphics/SVG/1.1/DTD/svg11.dtd"><svg t="1566981567487" class="icon" viewBox="0 0 1024 1024" version="1.1" xmlns="http://www.w3.org/2000/svg" p-id="2028" xmlns:xlink="http://www.w3.org/1999/xlink" width="200" height="200"><defs><style type="text/css"></style></defs><path d="M606.890667 291.233185l-67.280593 125.477926c-18.204444 34.550519-29.108148 56.376889-32.749037 67.280593h-1.820444c-12.705185-27.268741-45.454222-90.927407-101.831112-192.758519h-63.658666l120.035555 203.662222h-98.209185v45.473186h114.574222v61.838222h-114.574222v45.473185h114.574222v90.927407h56.376889v-90.927407h110.933334v-45.473185h-110.933334v-61.819259h110.933334v-45.473186h-94.568297l120.035556-203.681185h-61.838222zM808.751407 94.814815H199.509333C130.408296 94.814815 75.851852 151.191704 75.851852 218.472296v591.075556c0 69.101037 56.376889 123.638519 123.657481 123.638518h611.062519c69.12 0 123.676444-56.357926 123.676444-123.638518V220.273778C934.248296 151.191704 877.871407 94.814815 808.751407 94.814815z m74.562371 716.534518c0 41.832296-32.730074 74.56237-74.562371 74.562371H199.509333c-41.813333 0-74.56237-32.730074-74.56237-74.562371V220.292741c0-41.813333 32.749037-74.56237 74.56237-74.562371h611.062519c41.832296 0 74.56237 32.749037 74.56237 74.562371v591.075555h-1.820444z" p-id="2029" fill="#1296db"></path></svg>