<?xml version="1.0" standalone="no"?><!DOCTYPE svg PUBLIC "-//W3C//DTD SVG 1.1//EN" "http://www.w3.org/Graphics/SVG/1.1/DTD/svg11.dtd"><svg t="1574928987668" class="icon" viewBox="0 0 1024 1024" version="1.1" xmlns="http://www.w3.org/2000/svg" p-id="1092" xmlns:xlink="http://www.w3.org/1999/xlink" width="200" height="200"><defs><style type="text/css"></style></defs><path d="M720.592593 113.777778h227.555555c41.718519 0 75.851852 34.133333 75.851852 75.851852v227.555555c0 41.718519-34.133333 75.851852-75.851852 75.851852h-227.555555c-41.718519 0-75.851852-34.133333-75.851852-75.851852V189.62963c0-41.718519 34.133333-75.851852 75.851852-75.851852zM720.592593 644.740741h227.555555c41.718519 0 75.851852 34.133333 75.851852 75.851852v227.555555c0 41.718519-34.133333 75.851852-75.851852 75.851852h-227.555555c-41.718519 0-75.851852-34.133333-75.851852-75.851852v-227.555555c0-41.718519 34.133333-75.851852 75.851852-75.851852zM227.555556 644.740741h227.555555c41.718519 0 75.851852 34.133333 75.851852 75.851852v227.555555c0 41.718519-34.133333 75.851852-75.851852 75.851852H227.555556c-41.718519 0-75.851852-34.133333-75.851852-75.851852v-227.555555c0-41.718519 34.133333-75.851852 75.851852-75.851852z" fill="#1296db" opacity=".15" p-id="1093"></path><path d="M364.088889 838.162963c0 22.755556-15.17037 37.925926-37.925926 37.925926H109.985185c-22.755556 0-37.925926-15.17037-37.925926-37.925926v-219.97037c0-22.755556 15.17037-37.925926 37.925926-37.925926h219.970371c22.755556 0 37.925926 15.17037 37.925925 37.925926l-3.792592 219.97037z m-34.133333-326.162963H109.985185c-56.888889 0-109.985185 49.303704-109.985185 109.985185v219.970371C0 895.051852 49.303704 948.148148 109.985185 948.148148h219.970371c56.888889 0 109.985185-49.303704 109.985185-109.985185v-219.97037c-3.792593-56.888889-53.096296-106.192593-109.985185-106.192593z m546.133333 326.162963c0 22.755556-15.17037 37.925926-37.925926 37.925926h-219.97037c-22.755556 0-37.925926-15.17037-37.925926-37.925926v-219.97037c0-22.755556 15.17037-37.925926 37.925926-37.925926h219.97037c22.755556 0 37.925926 15.17037 37.925926 37.925926v219.97037z m-37.925926-326.162963h-219.97037c-56.888889 0-109.985185 49.303704-109.985186 109.985185v219.970371c0 56.888889 49.303704 109.985185 109.985186 109.985185h219.97037c56.888889 0 109.985185-49.303704 109.985185-109.985185v-219.970371c0-60.681481-53.096296-109.985185-109.985185-109.985185z m37.925926-185.837037c0 22.755556-15.17037 37.925926-37.925926 37.925926h-219.97037c-22.755556 0-37.925926-15.17037-37.925926-37.925926V109.985185c0-22.755556 15.17037-37.925926 37.925926-37.925926h219.97037c22.755556 0 37.925926 15.17037 37.925926 37.925926v216.177778z m-37.925926-326.162963h-219.97037c-56.888889 0-109.985185 49.303704-109.985186 109.985185v219.970371c0 56.888889 49.303704 109.985185 109.985186 109.985185h219.97037c56.888889 0 109.985185-49.303704 109.985185-109.985185V109.985185C948.148148 49.303704 895.051852 0 838.162963 0zM140.325926 352.711111c15.17037 7.585185 34.133333 7.585185 49.303704 0l235.14074-235.140741c7.585185-7.585185 11.377778-15.17037 11.377778-26.548148s-3.792593-18.962963-11.377778-26.548148c-7.585185-7.585185-15.17037-11.377778-26.548148-11.377778s-18.962963 7.585185-26.548148 15.170371L166.874074 269.274074 64.474074 170.666667c-3.792593-7.585185-15.17037-11.377778-22.755555-11.377778s-18.962963 3.792593-26.548149 11.377778c-15.17037 11.377778-15.17037 34.133333-7.585185 49.303703l132.740741 132.740741z" fill="#1296db" p-id="1094"></path></svg>