<?xml version="1.0" standalone="no"?><!DOCTYPE svg PUBLIC "-//W3C//DTD SVG 1.1//EN" "http://www.w3.org/Graphics/SVG/1.1/DTD/svg11.dtd"><svg t="1566873303850" class="icon" viewBox="0 0 1024 1024" version="1.1" xmlns="http://www.w3.org/2000/svg" p-id="5173" xmlns:xlink="http://www.w3.org/1999/xlink" width="200" height="200"><defs><style type="text/css"></style></defs><path d="M696.031782 162.655949H102.847968C46.047986 162.655949 0 211.391934 0 268.063916v653.375796A102.719968 102.719968 0 0 0 102.847968 1023.99968H695.999783a102.719968 102.719968 0 0 0 102.879967-102.559968V265.215917a102.719968 102.719968 0 0 0-102.847968-102.559968z m38.975988 759.423763c0 18.559994-15.551995 37.919988-34.591989 37.919988H103.071968C84.031974 959.9997 63.99998 944.479705 63.99998 925.343711V264.127917c0-19.135994 13.279996-37.471988 31.99999-37.471988h599.807813c19.039994 0 39.071988 15.519995 39.071987 34.655989l0.128 660.767794z" fill="#1296db" p-id="5174"></path><path d="M241.631924 612.991808l134.143959 134.143959c3.359999 3.359999 11.327996 9.951997 23.775992 9.951996s20.639994-7.007998 23.551993-9.951996l134.143958-134.143959c12.927996-12.927996 13.311996-33.56799 0.8-46.079985s-33.11999-12.127996-46.079986 0.8l-80.543975 80.543974-0.096-185.535942c0-18.335994-14.335996-33.18399-31.99999-33.151989-17.663994 0.032-31.96799 14.911995-31.93599 33.247989l0.096 185.503942-80.607975-80.607974c-12.927996-12.927996-33.56799-13.311996-46.079985-0.8-12.479996 12.511996-12.095996 33.15199 0.831999 46.079985z" fill="#1296db" p-id="5175"></path><path d="M921.151712 0H327.967898C271.167915 0 225.11993 48.735985 225.11993 105.407967V215.999933h63.99998V101.471968c0-19.135994 13.279996-37.471988 31.99999-37.471988h599.807812C939.967706 63.99998 959.9997 79.519975 959.9997 98.655969l0.128 660.767794c0 18.559994-15.551995 37.919988-34.591989 37.919988H751.999765v63.99998h169.119947A102.719968 102.719968 0 0 0 1023.99968 758.783763V102.559968A102.719968 102.719968 0 0 0 921.151712 0z" fill="#1296db" p-id="5176"></path></svg>