<?xml version="1.0" standalone="no"?><!DOCTYPE svg PUBLIC "-//W3C//DTD SVG 1.1//EN" "http://www.w3.org/Graphics/SVG/1.1/DTD/svg11.dtd"><svg t="1566873280089" class="icon" viewBox="0 0 1024 1024" version="1.1" xmlns="http://www.w3.org/2000/svg" p-id="5019" xmlns:xlink="http://www.w3.org/1999/xlink" width="200" height="200"><defs><style type="text/css"></style></defs><path d="M656 422.4a92.8 92.8 0 0 0 44.8 80 89.6 89.6 0 0 0 89.6 0 92.8 92.8 0 0 0 44.8-80 89.6 89.6 0 0 0-179.2 0z" p-id="5020" fill="#1296db"></path><path d="M640 720a204.8 204.8 0 0 1 9.6-64l-224-89.6L150.4 768V374.4A86.4 86.4 0 0 1 233.6 288h576a86.4 86.4 0 0 1 83.2 86.4V512a176 176 0 0 1 86.4 38.4V288A83.2 83.2 0 0 0 896 204.8H150.4A86.4 86.4 0 0 0 64 288v544a86.4 86.4 0 0 0 86.4 83.2h624a211.2 211.2 0 0 1-134.4-195.2z" p-id="5021" fill="#1296db"></path><path d="M972.8 601.6a163.2 163.2 0 0 0-121.6-51.2 172.8 172.8 0 1 0 172.8 172.8 169.6 169.6 0 0 0-51.2-121.6z m-38.4 144l-73.6 67.2a19.2 19.2 0 0 1-19.2 0L768 745.6c-3.2-3.2-6.4-6.4-3.2-9.6s6.4-6.4 9.6-6.4h54.4v-76.8a22.4 22.4 0 0 1 22.4-22.4l16 6.4c3.2 6.4 6.4 9.6 6.4 16v73.6h51.2c6.4 0 9.6 3.2 12.8 9.6s0 6.4-3.2 9.6zM38.4 240a76.8 76.8 0 0 1 76.8-76.8h787.2A86.4 86.4 0 0 0 832 124.8H86.4A86.4 86.4 0 0 0 0 208v544a86.4 86.4 0 0 0 38.4 70.4z" p-id="5022" fill="#1296db"></path></svg>