<?xml version="1.0" standalone="no"?><!DOCTYPE svg PUBLIC "-//W3C//DTD SVG 1.1//EN" "http://www.w3.org/Graphics/SVG/1.1/DTD/svg11.dtd"><svg t="1566526426750" class="icon" viewBox="0 0 1024 1024" version="1.1" xmlns="http://www.w3.org/2000/svg" p-id="4417" xmlns:xlink="http://www.w3.org/1999/xlink" width="200" height="200"><defs><style type="text/css"></style></defs><path d="M441.6 448h140.8v-70.4c0-38.4-32-70.4-70.4-70.4s-70.4 32-70.4 70.4V448z m44.8 185.6v83.2h51.2v-83.2c25.6-9.6 44.8-35.2 44.8-64 0-38.4-32-70.4-70.4-70.4s-70.4 32-70.4 70.4c0 28.8 19.2 54.4 44.8 64z m-96-185.6v-70.4C390.4 310.4 444.8 256 512 256s121.6 54.4 121.6 121.6V448H672c19.2 0 35.2 16 35.2 35.2V736c0 19.2-16 35.2-35.2 35.2H352c-19.2 0-35.2-16-35.2-35.2v-256c0-19.2 16-35.2 35.2-35.2h38.4z" p-id="4418" fill="#1296db"></path><path d="M512 0c-99.2 0-192 28.8-272 80L179.2 0l-64 224 233.6-6.4-54.4-70.4c64-38.4 137.6-60.8 217.6-60.8 233.6 0 425.6 188.8 425.6 425.6s-192 425.6-425.6 425.6S89.6 745.6 89.6 512c0-41.6 6.4-80 16-118.4l-89.6-3.2C6.4 428.8 0 470.4 0 512c0 281.6 230.4 512 512 512s512-230.4 512-512S793.6 0 512 0z" p-id="4419" fill="#1296db"></path></svg>