<?xml version="1.0" standalone="no"?><!DOCTYPE svg PUBLIC "-//W3C//DTD SVG 1.1//EN" "http://www.w3.org/Graphics/SVG/1.1/DTD/svg11.dtd"><svg t="1566954173381" class="icon" viewBox="0 0 1024 1024" version="1.1" xmlns="http://www.w3.org/2000/svg" p-id="3534" xmlns:xlink="http://www.w3.org/1999/xlink" width="128" height="128"><defs><style type="text/css"></style></defs><path d="M872 92H152c-33.09 0-60 26.91-60 60v720c0 33.09 26.91 60 60 60h555a30 30 0 1 0 0-60H152V152h720v555a30 30 0 1 0 60 0V152c0-33.09-26.91-60-60-60z" p-id="3535"></path><path d="M774.26 731.84A193.83 193.83 0 0 0 812 617c0-107.52-87.48-195-195-195S422 509.48 422 617s87.48 195 195 195a193.83 193.83 0 0 0 114.84-37.74l103.95 103.95a29.91 29.91 0 0 0 42.42 0 29.97 29.97 0 0 0 0-42.42l-103.95-103.95zM482 617c0-74.43 60.57-135 135-135s135 60.57 135 135-60.57 135-135 135-135-60.57-135-135zM782 279.5a30 30 0 0 0-30-30H272a30 30 0 0 0 0 60h480a30 30 0 0 0 30-30zM272 428.24a30 30 0 0 0 0 60h90a30 30 0 0 0 0-60H272z" p-id="3536"></path></svg>