<?xml version="1.0" standalone="no"?><!DOCTYPE svg PUBLIC "-//W3C//DTD SVG 1.1//EN" "http://www.w3.org/Graphics/SVG/1.1/DTD/svg11.dtd"><svg t="1571388671685" class="icon" viewBox="0 0 1024 1024" version="1.1" xmlns="http://www.w3.org/2000/svg" p-id="4468" xmlns:xlink="http://www.w3.org/1999/xlink" width="200" height="200"><defs><style type="text/css"></style></defs><path d="M512 752c-16.56 0-30-13.41-30-30v-90c0-16.59 13.44-30 30-30s30 13.41 30 30v90c0 16.59-13.44 30-30 30z" fill="#1296db" p-id="4469"></path><path d="M812 932H212c-49.62 0-90-40.38-90-90V512c0-49.62 40.38-90 90-90h600c49.62 0 90 40.38 90 90v330c0 49.62-40.38 90-90 90zM212 482c-16.53 0-30 13.47-30 30v330c0 16.56 13.47 30 30 30h600c16.56 0 30-13.44 30-30V512c0-16.53-13.44-30-30-30H212z" fill="#1296db" p-id="4470"></path><path d="M722 482c-16.59 0-30-13.44-30-30V330.14C692 228.17 596.15 152 510.44 152 422.72 152 332 218.48 332 329.72V452c0 16.56-13.44 30-30 30s-30-13.44-30-30V329.72C272 180.92 393.23 92 510.44 92 624.71 92 752 189.8 752 330.14V452c0 16.56-13.41 30-30 30z" fill="#1296db" p-id="4471"></path></svg>