<?xml version="1.0" standalone="no"?><!DOCTYPE svg PUBLIC "-//W3C//DTD SVG 1.1//EN" "http://www.w3.org/Graphics/SVG/1.1/DTD/svg11.dtd"><svg t="1596097799361" class="icon" viewBox="0 0 1170 1024" version="1.1" xmlns="http://www.w3.org/2000/svg" p-id="23411" xmlns:xlink="http://www.w3.org/1999/xlink" width="228.515625" height="200"><defs><style type="text/css"></style></defs><path d="M381.415619 790.308571L52.833524 718.750476c-24.380952-3.510857-49.103238-19.18781-49.103238-39.984762 0-20.772571 32.792381-38.66819 53.784381-51.687619L1012.931048 54.320762C1031.92381 42.422857 1104.530286 11.727238 1121.52381 24.380952c16.993524 12.653714-3.364571 40.69181-10.21562 48.761905L461.360762 804.571429l-79.945143-14.262858z m184.807619-368.786285l-0.585143 0.560762 0.585143-0.560762zM101.278476 671.085714l333.531429 66.218667 598.357333-633.904762-888.905143 542.232381-43.008 25.453714z" p-id="23412" fill="#bfbfbf"></path><path d="M890.806857 874.934857l-426.812952-76.019809c-13.628952-2.389333-21.699048-2.730667-26.087619-15.872-4.36419-13.165714-1.877333-26.136381 7.631238-36.156953L1072.761905 73.142857c15.238095-16.286476 30.061714-35.961905 48.761905-48.761905 4.973714-3.413333 54.613333 8.070095 37.91238 68.169143l-171.398095 717.775238a85.284571 85.284571 0 0 1-82.846476 65.852953c-4.754286 0-9.630476-0.365714-14.384762-1.243429z m-381.830095-133.412571l383.390476 70.777904C902.485333 814.08 926.47619 804.571429 926.47619 780.190476l170.666667-676.790857-588.166095 638.122667z" p-id="23413" fill="#bfbfbf"></path><path d="M512.487619 1023.683048a30.72 30.72 0 0 1-6.070857-0.560762c-15.555048-2.925714-28.281905-16.359619-33.01181-35.352381l-46.616381-186.563048c-4.291048-17.188571 0-21.26019 3.388953-30.305524 3.388952-9.069714 16.213333-15.286857 30.354286-12.092952l149.211428 26.965333c13.604571 3.047619 19.041524-6.192762 24.454095 9.898667 5.412571 15.945143 3.974095 34.133333-3.754666 48.518095l-84.48 156.867048c-7.509333 14.287238-19.992381 22.625524-33.475048 22.625524z m-34.620952-216.966096l38.619428 142.531048 58.904381-125.952-97.523809-16.579048z" p-id="23414" fill="#bfbfbf"></path></svg>