<?xml version="1.0" standalone="no"?><!DOCTYPE svg PUBLIC "-//W3C//DTD SVG 1.1//EN" "http://www.w3.org/Graphics/SVG/1.1/DTD/svg11.dtd"><svg t="1596097747255" class="icon" viewBox="0 0 1024 1024" version="1.1" xmlns="http://www.w3.org/2000/svg" p-id="22594" xmlns:xlink="http://www.w3.org/1999/xlink" width="200" height="200"><defs><style type="text/css"></style></defs><path d="M1013.76 5.632c-5.632-5.12-14.336-6.656-21.504-4.096L65.024 339.968c-31.744 12.8-54.272 40.448-60.416 74.24-6.144 33.792 6.144 67.584 32.256 90.624l238.08 197.12c0 1.024-0.512 2.048-0.512 3.072l-14.336 295.936c-0.512 8.704 4.608 16.896 12.8 20.48 2.56 1.024 5.632 2.048 8.704 2.048 5.632 0 10.752-2.048 14.848-6.144L424.96 888.832c8.192-8.192 8.192-22.016 0-30.208s-22.016-8.192-30.208 0l-89.088 89.088 10.752-212.48 309.76 256.512c17.92 15.872 40.96 25.088 65.024 25.088 43.008 0 80.384-27.136 94.208-69.12l236.032-921.6c0.512-7.168-2.048-15.36-7.68-20.48zM302.592 670.208l-238.08-197.12c-14.336-12.8-20.992-32.256-17.92-51.2 3.584-18.944 16.384-34.816 33.792-41.984L915.456 74.752 302.592 670.208z m440.32 266.24c-8.704 26.624-32.768 38.4-53.248 38.4-9.728 0-23.552-2.56-37.376-14.336l-317.44-263.168 624.64-606.208-216.576 845.312z" p-id="22595" fill="#bfbfbf"></path></svg>