<?xml version="1.0" standalone="no"?><!DOCTYPE svg PUBLIC "-//W3C//DTD SVG 1.1//EN" "http://www.w3.org/Graphics/SVG/1.1/DTD/svg11.dtd"><svg t="1596097868614" class="icon" viewBox="0 0 1024 1024" version="1.1" xmlns="http://www.w3.org/2000/svg" p-id="24262" xmlns:xlink="http://www.w3.org/1999/xlink" width="200" height="200"><defs><style type="text/css"></style></defs><path d="M966.424747 6.144c12.117333 8.704 16.896 20.48 14.677333 34.986667l-140.202667 841.130666a34.901333 34.901333 0 0 1-47.616 26.197334L545.304747 807.253333l-132.608 161.621334a32.170667 32.170667 0 0 1-26.88 12.544 30.72 30.72 0 0 1-12.117334-2.218667 33.962667 33.962667 0 0 1-16.725333-12.8 34.304 34.304 0 0 1-6.4-20.053333V755.285333l473.173333-580.010666-585.386666 506.624-216.234667-88.746667C8.55808 588.288 1.219413 578.218667 0.195413 563.114667a32.426667 32.426667 0 0 1 17.493334-32.426667L928.963413 5.034667a34.304 34.304 0 0 1 37.376 1.194666z" fill="#bfbfbf" p-id="24263"></path></svg>