<?xml version="1.0" standalone="no"?><!DOCTYPE svg PUBLIC "-//W3C//DTD SVG 1.1//EN" "http://www.w3.org/Graphics/SVG/1.1/DTD/svg11.dtd"><svg t="1596097709775" class="icon" viewBox="0 0 1024 1024" version="1.1" xmlns="http://www.w3.org/2000/svg" p-id="22353" xmlns:xlink="http://www.w3.org/1999/xlink" width="200" height="200"><defs><style type="text/css"></style></defs><path d="M551.353638 1024H94.697789A37.829552 37.829552 0 0 1 56.90541 986.207621V37.792379A37.829552 37.829552 0 0 1 94.697789 0h834.604422a37.841943 37.841943 0 0 1 37.792379 37.792379v572.238574h-35.933738V37.792379a1.932987 1.932987 0 0 0-1.858641-1.858642H94.697789a1.920596 1.920596 0 0 0-1.858641 1.858642v948.415242a1.932987 1.932987 0 0 0 1.858641 1.858642h456.655849z" fill="#8a8a8a" p-id="22354"></path><path d="M292.717465 147.613315h497.769001v35.933738H292.717465zM222.212994 246.654131h497.769v35.933737H222.212994zM292.717465 345.682555h497.769001v35.933737H292.717465zM370.23521 732.304788a115.458816 115.458816 0 1 1 115.458816-115.458816A115.595116 115.595116 0 0 1 370.23521 732.304788z m0-194.983894a79.525078 79.525078 0 1 0 79.525078 79.525078 79.611815 79.611815 0 0 0-79.525078-79.525078z" fill="#8a8a8a" p-id="22355"></path><path d="M521.119735 847.491003h-35.933738a114.950787 114.950787 0 1 0-229.889183 0h-35.933738a150.884525 150.884525 0 1 1 301.756659 0zM627.446425 818.644886h337.640832v46.701468H627.446425z" fill="#8a8a8a" p-id="22356"></path><path d="M810.088939 663.663915l154.985927 154.985927-33.021866 33.023105-154.985927-154.985927z" fill="#8a8a8a" p-id="22357"></path><path d="M965.02778 865.259617l-154.985927 154.985927-33.021865-33.021866 154.985927-154.985927z" fill="#8a8a8a" p-id="22358"></path></svg>