<?xml version="1.0" standalone="no"?><!DOCTYPE svg PUBLIC "-//W3C//DTD SVG 1.1//EN" "http://www.w3.org/Graphics/SVG/1.1/DTD/svg11.dtd"><svg t="1566372331751" class="icon" viewBox="0 0 1024 1024" version="1.1" xmlns="http://www.w3.org/2000/svg" p-id="1597" xmlns:xlink="http://www.w3.org/1999/xlink" width="200" height="200"><defs><style type="text/css"></style></defs><path d="M328.602 628.43l-61.008 137.999 138.226-60.781 0.146-0.146-77.218-77.218zM804.15 152.874l77.217 77.217-453.475 453.475-77.217-77.217zM903.297 208.17l86.973-86.973c22.604-22.604 26.036-55.821 7.666-74.192l-10.692-10.692c-18.371-18.371-51.587-14.939-74.192 7.666l-86.973 86.973 77.218 77.218z" p-id="1598" fill="#1296db"></path><path d="M940.399 902.532c0 21.328-17.289 38.617-38.617 38.617H121.718c-21.328 0-38.617-17.289-38.617-38.617V122.468c0-21.328 17.289-38.617 38.617-38.617h649.827L830.897 24.5H67.714c-24.281 0-43.964 19.683-43.964 43.964v888.072c0 24.281 19.683 43.964 43.964 43.964h888.072c24.281 0 43.964-19.683 43.964-43.964V214.874l-59.351 59.351v628.307z" p-id="1599" fill="#1296db"></path></svg>