<?xml version="1.0" standalone="no"?><!DOCTYPE svg PUBLIC "-//W3C//DTD SVG 1.1//EN" "http://www.w3.org/Graphics/SVG/1.1/DTD/svg11.dtd"><svg t="1566372284675" class="icon" viewBox="0 0 1024 1024" version="1.1" xmlns="http://www.w3.org/2000/svg" p-id="1287" xmlns:xlink="http://www.w3.org/1999/xlink" width="200" height="200"><defs><style type="text/css"></style></defs><path d="M261.159515 503.487365a64.78183 64.78183 0 0 1 0-91.629372l205.003219-203.693583h0.02258a63.449614 63.449614 0 0 1 44.39215-18.696185c0.496759-0.06774 0.948357-0.316119 1.422536-0.316119 0.812878 0 1.490276 0.451599 2.348313 0.451599 7.586858 0.338699 15.218875 1.648335 22.376715 4.583726 7.993297 3.29667 15.218875 8.061036 21.202557 14.112459l204.86774 203.558103a64.78183 64.78183 0 1 1-91.651951 91.629372l-94.361544-93.751885V769.975744a64.78183 64.78183 0 1 1-129.58624 0V409.69032l-94.406704 93.819625a64.80441 64.80441 0 0 1-91.629371-0.02258zM1024 0v1024H0V0h1024z m-63.991533 63.991533H63.991533v895.994355h895.994355V63.991533z" fill="#1296db" p-id="1288"></path></svg>