<?xml version="1.0" standalone="no"?><!DOCTYPE svg PUBLIC "-//W3C//DTD SVG 1.1//EN" "http://www.w3.org/Graphics/SVG/1.1/DTD/svg11.dtd"><svg t="1566800410354" class="icon" viewBox="0 0 1024 1024" version="1.1" xmlns="http://www.w3.org/2000/svg" p-id="5604" xmlns:xlink="http://www.w3.org/1999/xlink" width="200" height="200"><defs><style type="text/css"></style></defs><path d="M368.2 462.3H185.8c-48.9 0-88.8-39.8-88.8-88.8V186.8c0-49 39.8-88.8 88.8-88.8h182.4C417.1 98 457 137.8 457 186.8v186.8c-0.1 48.9-39.9 88.7-88.8 88.7zM185.8 162C172.1 162 161 173.1 161 186.8v186.8c0 13.7 11.1 24.8 24.8 24.8h182.4c13.7 0 24.8-11.1 24.8-24.8V186.8c0-13.7-11.1-24.8-24.8-24.8H185.8zM372.7 927H181.3c-46.5 0-84.2-37.8-84.2-84.2V647c0-46.5 37.8-84.2 84.2-84.2h191.4c46.5 0 84.2 37.8 84.2 84.2v195.8c0 46.4-37.8 84.2-84.2 84.2zM181.3 626.7c-11 0-20.2 9.3-20.2 20.2v195.8c0 11 9.3 20.2 20.2 20.2h191.4c11 0 20.2-9.3 20.2-20.2V647c0-11-9.3-20.2-20.2-20.2H181.3zM892.9 223.8H544.3c-17.7 0-32-14.3-32-32s14.3-32 32-32h348.6c17.7 0 32 14.3 32 32s-14.4 32-32 32zM892.9 415.8H544.3c-17.7 0-32-14.3-32-32s14.3-32 32-32h348.6c17.7 0 32 14.3 32 32s-14.4 32-32 32zM892.9 703.9H544.3c-17.7 0-32-14.3-32-32s14.3-32 32-32h348.6c17.7 0 32 14.3 32 32s-14.4 32-32 32zM892.9 895.9H544.3c-17.7 0-32-14.3-32-32s14.3-32 32-32h348.6c17.7 0 32 14.3 32 32s-14.4 32-32 32z" p-id="5605" fill="#1296db"></path></svg>