<?xml version="1.0" standalone="no"?><!DOCTYPE svg PUBLIC "-//W3C//DTD SVG 1.1//EN" "http://www.w3.org/Graphics/SVG/1.1/DTD/svg11.dtd"><svg t="1566803593830" class="icon" viewBox="0 0 1024 1024" version="1.1" xmlns="http://www.w3.org/2000/svg" p-id="7055" xmlns:xlink="http://www.w3.org/1999/xlink" width="200" height="200"><defs><style type="text/css"></style></defs><path d="M512 51.512211c-254.320243 0-460.487789 206.167546-460.487789 460.487789s206.167546 460.487789 460.487789 460.487789 460.487789-206.167546 460.487789-460.487789S766.320243 51.512211 512 51.512211zM512 948.951747c-241.887073 0-437.975053-196.08798-437.975053-437.975053s196.08798-437.975053 437.975053-437.975053 437.975053 196.08798 437.975053 437.975053S753.887073 948.951747 512 948.951747z" p-id="7056" fill="#1296db"></path><path d="M512 73.001641c-241.887073 0-437.975053 196.08798-437.975053 437.975053s196.08798 437.975053 437.975053 437.975053 437.975053-196.08798 437.975053-437.975053S753.887073 73.001641 512 73.001641zM512 938.718685c-236.235352 0-427.741991-191.506638-427.741991-427.741991s191.506638-427.741991 427.741991-427.741991 427.741991 191.506638 427.741991 427.741991S748.235352 938.718685 512 938.718685z" p-id="7057" fill="#1296db"></path><path d="M636.870985 279.022855 387.129015 279.022855l-35.677571 35.684734 321.097112 0L636.870985 279.022855 636.870985 279.022855zM333.61317 332.552002l0 124.897591 356.772636 0L690.385806 332.552002 333.61317 332.552002 333.61317 332.552002zM583.355141 403.922493l0 17.839297-17.84032 0L565.514821 403.922493 458.484156 403.922493l0 17.839297-17.84032 0L440.643835 403.922493l0-17.844413 142.710282 0L583.354118 403.922493 583.355141 403.922493zM333.61317 600.188528l356.772636 0 0-124.894522L333.61317 475.294007 333.61317 600.188528 333.61317 600.188528zM440.644859 546.664497l0-17.84646 142.710282 0 0 17.84646 0 17.842367-17.84032 0 0-17.842367L458.484156 546.664497l0 17.842367-17.84032 0L440.643835 546.664497 440.644859 546.664497zM333.61317 742.930533l356.772636 0L690.385806 618.032942 333.61317 618.032942 333.61317 742.930533 333.61317 742.930533zM440.644859 689.403432l0-17.844413 142.710282 0 0 17.844413 0 17.842367-17.84032 0 0-17.842367L458.484156 689.403432l0 17.842367-17.84032 0L440.643835 689.403432 440.644859 689.403432zM440.644859 689.403432" p-id="7058" fill="#1296db"></path></svg>