<?xml version="1.0" standalone="no"?><!DOCTYPE svg PUBLIC "-//W3C//DTD SVG 1.1//EN" "http://www.w3.org/Graphics/SVG/1.1/DTD/svg11.dtd"><svg t="1566782588016" class="icon" viewBox="0 0 1024 1024" version="1.1" xmlns="http://www.w3.org/2000/svg" p-id="2920" xmlns:xlink="http://www.w3.org/1999/xlink" width="200" height="200"><defs><style type="text/css"></style></defs><path d="M503.057493 862.235167a26.964048 26.964048 0 0 1-26.964048-26.964048V431.151715a26.964048 26.964048 0 1 1 53.893964 0v404.187667a26.964048 26.964048 0 0 1-26.964048 26.929916z" fill="#1296db" p-id="2921"></path><path d="M503.057493 889.165083a26.964048 26.964048 0 0 1-18.874834-8.055083l-161.681893-161.681893a27.066443 27.066443 0 1 1 38.261643-38.261643l142.295084 142.80706 142.807059-142.80706a27.066443 27.066443 0 0 1 38.227512 38.227512l-161.647762 161.716024a26.964048 26.964048 0 0 1-19.386809 8.055083z" fill="#1296db" p-id="2922"></path><path d="M873.796088 1023.91706H132.284766A110.996309 110.996309 0 0 1 18.045945 916.094999V215.541726a110.996309 110.996309 0 0 1 114.238821-107.753797h101.302905v61.266413H132.284766c-31.469433-1.535927-44.576009 15.086214-46.589779 46.487384v700.587405c0.819161 15.154478 0.785029 26.452072 10.717356 35.326316 9.932327 8.874244 20.717946 13.345497 35.872423 12.492205H873.796088c15.154478 0.853293 24.028721-2.389219 35.326316-12.492205 11.331727-10.137117 11.434122-20.171838 12.287414-35.326316V215.541726c-0.853293-15.154478-0.955688-25.59878-12.287414-35.735897-11.297595-10.102985-20.137707-11.638912-35.326316-10.751487h-101.302905V107.787929H873.796088a110.996309 110.996309 0 0 1 114.238821 107.753797v700.587405a110.996309 110.996309 0 0 1-114.238821 107.787929z" fill="#1296db" p-id="2923"></path><path d="M772.493183 242.505774h-53.893964V90.00531c0-14.574239-25.871833-36.111345-65.737667-36.111346H353.219302c-39.865833 0-65.737667 21.025131-65.737667 36.111346v152.500464H233.587671V90.00531C233.587671 40.41194 287.515767 0 353.219302 0h299.64225c65.737667 0 119.631631 40.41194 119.631631 90.00531v152.500464z m53.893965 53.893964H179.693707a26.964048 26.964048 0 0 1 0-53.928096h646.693441a26.964048 26.964048 0 0 1 0 53.928096z" fill="#1296db" p-id="2924"></path></svg>