<?xml version="1.0" standalone="no"?><!DOCTYPE svg PUBLIC "-//W3C//DTD SVG 1.1//EN" "http://www.w3.org/Graphics/SVG/1.1/DTD/svg11.dtd"><svg t="1566971686482" class="icon" viewBox="0 0 1024 1024" version="1.1" xmlns="http://www.w3.org/2000/svg" p-id="11858" xmlns:xlink="http://www.w3.org/1999/xlink" width="128" height="128"><defs><style type="text/css"></style></defs><path d="M417.392 128 183.652267 128C152.913067 128 128 152.913067 128 183.652267l0 233.739733c0 30.7392 24.913067 55.652267 55.652267 55.652267l233.739733 0c30.7392 0 55.652267-24.913067 55.652267-55.652267l0-233.739733C473.0432 152.913067 448.1312 128 417.392 128zM428.522667 417.392c0 6.152533-4.9792 11.130667-11.130667 11.130667L183.652267 428.522667c-6.152533 0-11.130667-4.9792-11.130667-11.130667L172.5216 183.652267c0-6.152533 4.9792-11.130667 11.130667-11.130667l233.739733 0c6.152533 0 11.130667 4.9792 11.130667 11.130667L428.522667 417.392zM417.392 550.9568 183.652267 550.9568c-30.7392 0-55.652267 24.912-55.652267 55.652267l0 233.738667c0 30.741333 24.913067 55.653333 55.652267 55.653333l233.739733 0c30.7392 0 55.652267-24.912 55.652267-55.652267l0-233.739733C473.0432 575.8688 448.1312 550.9568 417.392 550.9568zM428.522667 840.347733c0 6.152533-4.9792 11.130667-11.130667 11.130667L183.652267 851.4784c-6.152533 0-11.130667-4.978133-11.130667-11.130667L172.5216 606.609067c0-6.152533 4.9792-11.130667 11.130667-11.130667l233.739733 0c6.152533 0 11.130667 4.9792 11.130667 11.130667L428.522667 840.347733zM840.347733 128l-233.738667 0c-30.7392 0-55.652267 24.913067-55.652267 55.652267l0 233.739733c0 30.7392 24.912 55.652267 55.652267 55.652267l233.738667 0c30.7392 0 55.652267-24.913067 55.652267-55.652267l0-233.739733C896.001067 152.913067 871.086933 128 840.347733 128zM851.479467 417.392c0 6.152533-4.978133 11.130667-11.130667 11.130667L606.609067 428.522667c-6.152533 0-11.130667-4.9792-11.130667-11.130667l0-233.739733c0-6.152533 4.9792-11.130667 11.130667-11.130667l233.738667 0c6.152533 0 11.130667 4.9792 11.130667 11.130667L851.479467 417.392 851.479467 417.392zM840.347733 550.9568l-233.738667 0c-30.7392 0-55.652267 24.912-55.652267 55.652267l0 233.738667c0 30.740267 24.912 55.652267 55.652267 55.652267l233.738667 0C871.085867 896 896 871.088 896 840.347733l0-233.738667C896.001067 575.8688 871.086933 550.9568 840.347733 550.9568zM851.479467 840.347733c0 6.152533-4.978133 11.130667-11.130667 11.130667L606.609067 851.4784c-6.152533 0-11.130667-4.978133-11.130667-11.130667l0-233.739733c0-6.152533 4.9792-11.130667 11.130667-11.130667l233.738667 0c6.152533 0 11.130667 4.9792 11.130667 11.130667L851.479467 840.347733 851.479467 840.347733z" p-id="11859"></path></svg>